<mxfile host="app.diagrams.net" modified="2021-05-06T08:07:29.828Z" agent="5.0 (Windows NT 10.0; Win64; x64) AppleWebKit/537.36 (KHTML, like Gecko) Chrome/90.0.4430.93 Safari/537.36 Edg/90.0.818.51" etag="fi18PQZIhnqYvd0CFRwA" version="14.6.10" type="github">
  <diagram name="Page-1" id="929967ad-93f9-6ef4-fab6-5d389245f69c">
    <mxGraphModel dx="3029" dy="1286" grid="1" gridSize="10" guides="1" tooltips="1" connect="1" arrows="1" fold="1" page="1" pageScale="1.5" pageWidth="1169" pageHeight="826" background="none" math="0" shadow="0">
      <root>
        <mxCell id="0" style=";html=1;" />
        <mxCell id="1" style=";html=1;" parent="0" />
        <mxCell id="1672d66443f91eb5-23" value="Асылбек у. Таласс" style="text;strokeColor=none;fillColor=none;html=1;fontSize=24;fontStyle=1;verticalAlign=middle;align=center;" parent="1" vertex="1">
          <mxGeometry x="120" y="40" width="1510" height="40" as="geometry" />
        </mxCell>
        <mxCell id="foP8lO7jeyyQwQ6uYE3r-11" style="edgeStyle=orthogonalEdgeStyle;rounded=0;orthogonalLoop=1;jettySize=auto;html=1;exitX=1;exitY=0.5;exitDx=0;exitDy=0;" edge="1" parent="1" source="foP8lO7jeyyQwQ6uYE3r-1" target="foP8lO7jeyyQwQ6uYE3r-2">
          <mxGeometry relative="1" as="geometry" />
        </mxCell>
        <mxCell id="foP8lO7jeyyQwQ6uYE3r-12" value="Рассмотренная&lt;br&gt;заявка" style="edgeLabel;html=1;align=center;verticalAlign=middle;resizable=0;points=[];" vertex="1" connectable="0" parent="foP8lO7jeyyQwQ6uYE3r-11">
          <mxGeometry x="0.0172" y="2" relative="1" as="geometry">
            <mxPoint x="-47" y="2" as="offset" />
          </mxGeometry>
        </mxCell>
        <mxCell id="foP8lO7jeyyQwQ6uYE3r-1" value="Принятие заявки" style="rounded=0;whiteSpace=wrap;html=1;" vertex="1" parent="1">
          <mxGeometry x="360" y="410" width="190" height="110" as="geometry" />
        </mxCell>
        <mxCell id="foP8lO7jeyyQwQ6uYE3r-15" style="edgeStyle=orthogonalEdgeStyle;rounded=0;orthogonalLoop=1;jettySize=auto;html=1;exitX=1;exitY=0.5;exitDx=0;exitDy=0;" edge="1" parent="1" source="foP8lO7jeyyQwQ6uYE3r-2" target="foP8lO7jeyyQwQ6uYE3r-3">
          <mxGeometry relative="1" as="geometry" />
        </mxCell>
        <mxCell id="foP8lO7jeyyQwQ6uYE3r-16" value="Договор" style="edgeLabel;html=1;align=center;verticalAlign=middle;resizable=0;points=[];" vertex="1" connectable="0" parent="foP8lO7jeyyQwQ6uYE3r-15">
          <mxGeometry x="-0.445" y="-2" relative="1" as="geometry">
            <mxPoint as="offset" />
          </mxGeometry>
        </mxCell>
        <mxCell id="foP8lO7jeyyQwQ6uYE3r-2" value="Оформление договора" style="rounded=0;whiteSpace=wrap;html=1;" vertex="1" parent="1">
          <mxGeometry x="610" y="560" width="190" height="110" as="geometry" />
        </mxCell>
        <mxCell id="foP8lO7jeyyQwQ6uYE3r-19" value="Выполненный&lt;br&gt;заказ" style="edgeStyle=orthogonalEdgeStyle;rounded=0;orthogonalLoop=1;jettySize=auto;html=1;exitX=1;exitY=0.5;exitDx=0;exitDy=0;" edge="1" parent="1" source="foP8lO7jeyyQwQ6uYE3r-3">
          <mxGeometry relative="1" as="geometry">
            <mxPoint x="1159.9999999999998" y="745.1176470588236" as="targetPoint" />
          </mxGeometry>
        </mxCell>
        <mxCell id="foP8lO7jeyyQwQ6uYE3r-3" value="Продажа автомобиля" style="rounded=0;whiteSpace=wrap;html=1;" vertex="1" parent="1">
          <mxGeometry x="870" y="690" width="190" height="110" as="geometry" />
        </mxCell>
        <mxCell id="foP8lO7jeyyQwQ6uYE3r-4" value="" style="endArrow=classic;html=1;rounded=0;edgeStyle=orthogonalEdgeStyle;" edge="1" parent="1">
          <mxGeometry relative="1" as="geometry">
            <mxPoint x="240" y="460" as="sourcePoint" />
            <mxPoint x="360" y="460" as="targetPoint" />
            <Array as="points">
              <mxPoint x="320" y="460" />
              <mxPoint x="320" y="460" />
            </Array>
          </mxGeometry>
        </mxCell>
        <mxCell id="foP8lO7jeyyQwQ6uYE3r-5" value="Заказ клиента" style="edgeLabel;resizable=0;html=1;align=center;verticalAlign=middle;" connectable="0" vertex="1" parent="foP8lO7jeyyQwQ6uYE3r-4">
          <mxGeometry relative="1" as="geometry" />
        </mxCell>
        <mxCell id="foP8lO7jeyyQwQ6uYE3r-7" value="" style="endArrow=classic;html=1;rounded=0;edgeStyle=orthogonalEdgeStyle;fontFamily=Helvetica;fontSize=11;fontColor=#000000;align=center;strokeColor=#000000;" edge="1" parent="1" target="foP8lO7jeyyQwQ6uYE3r-1">
          <mxGeometry relative="1" as="geometry">
            <mxPoint x="408" y="270" as="sourcePoint" />
            <mxPoint x="400" y="400" as="targetPoint" />
            <Array as="points">
              <mxPoint x="408" y="350" />
              <mxPoint x="408" y="350" />
            </Array>
          </mxGeometry>
        </mxCell>
        <mxCell id="foP8lO7jeyyQwQ6uYE3r-9" value="" style="endArrow=classic;html=1;rounded=0;edgeStyle=orthogonalEdgeStyle;entryX=0.75;entryY=0;entryDx=0;entryDy=0;" edge="1" parent="1" target="foP8lO7jeyyQwQ6uYE3r-1">
          <mxGeometry relative="1" as="geometry">
            <mxPoint x="503" y="270" as="sourcePoint" />
            <mxPoint x="570" y="280" as="targetPoint" />
            <Array as="points">
              <mxPoint x="502" y="280" />
            </Array>
          </mxGeometry>
        </mxCell>
        <mxCell id="foP8lO7jeyyQwQ6uYE3r-13" value="" style="endArrow=classic;html=1;rounded=0;edgeStyle=orthogonalEdgeStyle;entryX=0.25;entryY=1;entryDx=0;entryDy=0;" edge="1" parent="1" target="foP8lO7jeyyQwQ6uYE3r-2">
          <mxGeometry relative="1" as="geometry">
            <mxPoint x="658" y="790" as="sourcePoint" />
            <mxPoint x="670" y="720" as="targetPoint" />
          </mxGeometry>
        </mxCell>
        <mxCell id="foP8lO7jeyyQwQ6uYE3r-14" value="Юридичекий&lt;br&gt;отдел" style="edgeLabel;resizable=0;html=1;align=center;verticalAlign=middle;" connectable="0" vertex="1" parent="foP8lO7jeyyQwQ6uYE3r-13">
          <mxGeometry relative="1" as="geometry" />
        </mxCell>
        <mxCell id="foP8lO7jeyyQwQ6uYE3r-17" value="" style="endArrow=classic;html=1;rounded=0;edgeStyle=orthogonalEdgeStyle;entryX=0.75;entryY=0;entryDx=0;entryDy=0;" edge="1" parent="1" target="foP8lO7jeyyQwQ6uYE3r-3">
          <mxGeometry relative="1" as="geometry">
            <mxPoint x="1012" y="360" as="sourcePoint" />
            <mxPoint x="1140" y="360" as="targetPoint" />
            <Array as="points">
              <mxPoint x="1012" y="360" />
            </Array>
          </mxGeometry>
        </mxCell>
        <mxCell id="foP8lO7jeyyQwQ6uYE3r-18" value="Лицензия на&lt;br&gt;продажу" style="edgeLabel;resizable=0;html=1;align=center;verticalAlign=middle;" connectable="0" vertex="1" parent="foP8lO7jeyyQwQ6uYE3r-17">
          <mxGeometry relative="1" as="geometry" />
        </mxCell>
        <mxCell id="foP8lO7jeyyQwQ6uYE3r-20" value="" style="endArrow=classic;html=1;rounded=0;edgeStyle=orthogonalEdgeStyle;entryX=0.75;entryY=1;entryDx=0;entryDy=0;" edge="1" parent="1" target="foP8lO7jeyyQwQ6uYE3r-3">
          <mxGeometry relative="1" as="geometry">
            <mxPoint x="1012" y="920" as="sourcePoint" />
            <mxPoint x="1010" y="860" as="targetPoint" />
          </mxGeometry>
        </mxCell>
        <mxCell id="foP8lO7jeyyQwQ6uYE3r-21" value="Отдел сбыта&lt;br&gt;автомобилей" style="edgeLabel;resizable=0;html=1;align=center;verticalAlign=middle;" connectable="0" vertex="1" parent="foP8lO7jeyyQwQ6uYE3r-20">
          <mxGeometry relative="1" as="geometry" />
        </mxCell>
        <mxCell id="foP8lO7jeyyQwQ6uYE3r-22" value="" style="endArrow=classic;html=1;rounded=0;edgeStyle=orthogonalEdgeStyle;entryX=0.25;entryY=1;entryDx=0;entryDy=0;" edge="1" parent="1" target="foP8lO7jeyyQwQ6uYE3r-3">
          <mxGeometry relative="1" as="geometry">
            <mxPoint x="917" y="920" as="sourcePoint" />
            <mxPoint x="1020" y="920" as="targetPoint" />
          </mxGeometry>
        </mxCell>
        <mxCell id="foP8lO7jeyyQwQ6uYE3r-23" value="Отдел&lt;br&gt;бухгалтерии" style="edgeLabel;resizable=0;html=1;align=center;verticalAlign=middle;" connectable="0" vertex="1" parent="foP8lO7jeyyQwQ6uYE3r-22">
          <mxGeometry relative="1" as="geometry" />
        </mxCell>
        <mxCell id="foP8lO7jeyyQwQ6uYE3r-26" style="edgeStyle=orthogonalEdgeStyle;rounded=0;orthogonalLoop=1;jettySize=auto;html=1;exitX=0.75;exitY=1;exitDx=0;exitDy=0;entryX=0.25;entryY=0;entryDx=0;entryDy=0;" edge="1" parent="1" source="foP8lO7jeyyQwQ6uYE3r-24" target="foP8lO7jeyyQwQ6uYE3r-2">
          <mxGeometry relative="1" as="geometry">
            <Array as="points">
              <mxPoint x="435" y="350" />
              <mxPoint x="658" y="350" />
            </Array>
          </mxGeometry>
        </mxCell>
        <mxCell id="foP8lO7jeyyQwQ6uYE3r-24" value="&lt;span style=&quot;font-size: 11px ; background-color: rgb(255 , 255 , 255)&quot;&gt;Законодательство&lt;/span&gt;&lt;br style=&quot;font-size: 11px&quot;&gt;&lt;span style=&quot;font-size: 11px ; background-color: rgb(255 , 255 , 255)&quot;&gt;КР&lt;/span&gt;" style="rounded=0;whiteSpace=wrap;html=1;" vertex="1" parent="1">
          <mxGeometry x="360" y="240" width="100" height="30" as="geometry" />
        </mxCell>
        <mxCell id="foP8lO7jeyyQwQ6uYE3r-27" style="edgeStyle=orthogonalEdgeStyle;rounded=0;orthogonalLoop=1;jettySize=auto;html=1;exitX=0.75;exitY=1;exitDx=0;exitDy=0;entryX=0.25;entryY=0;entryDx=0;entryDy=0;" edge="1" parent="1" source="foP8lO7jeyyQwQ6uYE3r-25" target="foP8lO7jeyyQwQ6uYE3r-3">
          <mxGeometry relative="1" as="geometry">
            <Array as="points">
              <mxPoint x="535" y="380" />
              <mxPoint x="918" y="380" />
            </Array>
          </mxGeometry>
        </mxCell>
        <mxCell id="foP8lO7jeyyQwQ6uYE3r-25" value="&lt;span style=&quot;font-size: 11px ; background-color: rgb(255 , 255 , 255)&quot;&gt;Каталог&lt;/span&gt;&lt;br style=&quot;font-size: 11px&quot;&gt;&lt;span style=&quot;font-size: 11px ; background-color: rgb(255 , 255 , 255)&quot;&gt;автомобилей&lt;/span&gt;" style="rounded=0;whiteSpace=wrap;html=1;" vertex="1" parent="1">
          <mxGeometry x="460" y="240" width="100" height="30" as="geometry" />
        </mxCell>
      </root>
    </mxGraphModel>
  </diagram>
</mxfile>
